HIERARCHY
ROOT Hips
{
    OFFSET 0.0 0.0 0.0
    CHANNELS 6 Xposition Yposition Zposition Zrotation Xrotation Yrotation
    JOINT LeftUpLeg
    {
        OFFSET 12.78227089595552 0.0 0.0
        CHANNELS 3 Zrotation Xrotation Yrotation
        JOINT LeftLeg
        {
            OFFSET 0.0 0.0 -47.29945512334285
            CHANNELS 3 Zrotation Xrotation Yrotation
            JOINT LeftFoot
            {
                OFFSET 0.0 0.0 -36.405566786471745
                CHANNELS 3 Zrotation Xrotation Yrotation
                JOINT LeftToeBase
                {
                    OFFSET 0.0 -11.889395647023578 0.0
                    CHANNELS 3 Zrotation Xrotation Yrotation
                    End Site
                    {
                        OFFSET 0 0 0
                    }
                }
            }
        }
    }
    JOINT RightUpLeg
    {
        OFFSET -12.78227089595552 0.0 0.0
        CHANNELS 3 Zrotation Xrotation Yrotation
        JOINT RightLeg
        {
            OFFSET 0.0 0.0 -47.29945512334285
            CHANNELS 3 Zrotation Xrotation Yrotation
            JOINT RightFoot
            {
                OFFSET 0.0 0.0 -36.405566786471745
                CHANNELS 3 Zrotation Xrotation Yrotation
                JOINT RightToeBase
                {
                    OFFSET 0.0 -11.889395647023578 0.0
                    CHANNELS 3 Zrotation Xrotation Yrotation
                    End Site
                    {
                        OFFSET 0 0 0
                    }
                }
            }
        }
    }
    JOINT Spine
    {
        OFFSET 0.0 0.0 12.073125676803292
        CHANNELS 3 Zrotation Xrotation Yrotation
        JOINT Spine1
        {
            OFFSET 0.0 0.0 11.999155913801397
            CHANNELS 3 Zrotation Xrotation Yrotation
            JOINT Spine2
            {
                OFFSET 0.0 0.0 11.999155913801397
                CHANNELS 3 Zrotation Xrotation Yrotation
                JOINT Spine3
                {
                    OFFSET 0.0 0.0 11.999155913801392
                    CHANNELS 3 Zrotation Xrotation Yrotation
                    JOINT Spine4
                    {
                        OFFSET 0.0 0.0 11.9991559138014
                        CHANNELS 3 Zrotation Xrotation Yrotation
                        JOINT RightShoulder
                        {
                            OFFSET -20.955615325490754 0.0 0.0
                            CHANNELS 3 Zrotation Xrotation Yrotation
                            JOINT RightArm
                            {
                                OFFSET -34.30347128125841 0.0 0.0
                                CHANNELS 3 Zrotation Xrotation Yrotation
                                JOINT RightForeArm
                                {
                                    OFFSET -32.7905669506412 0.0 0.0
                                    CHANNELS 3 Zrotation Xrotation Yrotation
                                    JOINT RightHand
                                    {
                                        OFFSET -11.772681304386897 0.0 0.0
                                        CHANNELS 3 Zrotation Xrotation Yrotation
                                        End Site
                                        {
                                            OFFSET 0 0 0
                                        }
                                    }
                                }
                            }
                        }
                        JOINT LeftShoulder
                        {
                            OFFSET 20.955615325490754 0.0 0.0
                            CHANNELS 3 Zrotation Xrotation Yrotation
                            JOINT LeftArm
                            {
                                OFFSET 34.30347128125841 0.0 0.0
                                CHANNELS 3 Zrotation Xrotation Yrotation
                                JOINT LeftForeArm
                                {
                                    OFFSET 32.7905669506412 0.0 0.0
                                    CHANNELS 3 Zrotation Xrotation Yrotation
                                    JOINT LeftHand
                                    {
                                        OFFSET 11.772681304386897 0.0 0.0
                                        CHANNELS 3 Zrotation Xrotation Yrotation
                                        End Site
                                        {
                                            OFFSET 0 0 0
                                        }
                                    }
                                }
                            }
                        }
                        JOINT Neck
                        {
                            OFFSET 0.0 0.0 11.999155926258938
                            CHANNELS 3 Zrotation Xrotation Yrotation
                            JOINT Head
                            {
                                OFFSET 0.0 0.0 25.75896500805433
                                CHANNELS 3 Zrotation Xrotation Yrotation
                                End Site
                                {
                                    OFFSET 0 0 0
                                }
                            }
                        }
                    }
                }
            }
        }
    }
}
MOTION
Frames: 4
Frame Time: 0.03333333333333333
17.6790200650692 -32.436056041717535 493.4938785552979 142.76491344185115 -79.73213551487369 141.25059412913998 23.23870235757144 -18.262075910477638 -38.83746618495345 -39.44996750422137 1.0094846060756786 62.38427658305623 -139.74499384861417 1.5902773407317584e-15 140.62544099143383 0.0 0.0 0.0 57.109068516441944 40.81931130956716 2.715252990139721 -35.9473798163304 -10.69107957197681 -36.06289612063216 120.47482665258306 1.2722218725854067e-14 -113.49716965069999 0.0 0.0 0.0 -0.049757948579440825 1.9864214443061414 0.04994036225171635 -7.951386703658792e-16 2.4848083448933725e-17 1.7241821476758432e-34 -7.951386703658792e-16 2.4848083448933725e-17 1.7241821476758432e-34 -7.951386703658792e-16 2.4848083448933725e-17 1.7241821476758432e-34 -7.951386703658792e-16 2.4848083448933725e-17 1.7241821476758432e-34 -156.09301044735685 9.95459269717506 164.6086738523452 41.21693185179997 3.912004608678825e-15 3.625916114815738e-15 4.143495825640128e-15 27.901393435319555 -3.4872190280786138e-15 7.951386703658792e-16 -9.93923337957349e-17 -7.951386703658792e-16 153.6828001921056 6.633792824622209 -168.50645198340416 -38.34184087770359 1.679582479631808e-14 1.6302507818949451e-15 180.0 -7.983498464368308 180.0 0.0 0.0 -1.5902773407317584e-15 -0.7330753459805931 -3.6525935239586024e-15 -2.336701596711948e-17 4.4139062980501586e-32 -6.361109362927035e-15 7.951386703658794e-16
18.803862565755846 -32.84149553775788 493.2666126251221 140.77255800575057 -79.70693735258347 139.18410041913813 31.60608747947813 -24.376779304678628 -35.05762958361917 -48.63889844452856 1.5271042141288 61.774461578518576 -132.90044662244546 3.1805546814635168e-15 141.26174382842856 0.0 0.0 0.0 62.59896450694612 42.18371734913771 -0.326396678075672 -41.4548013810991 -11.632797110393097 -38.806732197624974 119.95515147886323 1.5902773407317584e-14 -103.38738357655802 0.0 0.0 0.0 -0.057861973441897814 1.9818914136401866 0.13585147066960684 -7.951386703658792e-16 -2.4848083448933725e-17 -1.7241821476758432e-34 -7.951386703658792e-16 -2.4848083448933725e-17 -1.7241821476758432e-34 -7.951386703658792e-16 -2.4848083448933725e-17 -1.7241821476758432e-34 -7.951386703658792e-16 -2.4848083448933725e-17 -1.7241821476758432e-34 -156.5442403982526 9.433742735725591 164.23413580202563 42.791654536833256 2.87184705209566e-14 -1.5522202329114736e-14 7.509631196500826e-16 25.366681786216677 3.906125591650042e-15 0.0 0.0 -1.5902773407317584e-15 153.41332254420374 5.828048740803877 -168.94955506469444 -37.97634518450833 1.1443852510732732e-14 -2.6668454566410595e-16 180.0 -8.15996363008038 -180.0 -1.5902773407317584e-15 0.0 0.0 -0.8122107875301906 2.2611187956329183e-15 1.6026798553343705e-17 0.0 0.0 0.0
19.813862389326097 -33.11707416772843 493.05554809570316 139.35578667046263 -79.78235940811585 137.7464624452846 36.731352107911206 -27.610816576090485 -32.3296944127389 -53.29341035093171 1.9105793695380173 61.21563323485147 -125.37903707103781 -3.1805546814635168e-15 141.10957597265306 0.0 0.0 0.0 66.28451230539312 43.03645977376186 -2.2608270283009455 -45.87351246250304 -12.200040642686682 -41.93250730401084 116.9653324983456 -1.2722218725854067e-14 -89.309175049685 0.0 0.0 0.0 -0.06527664914772971 1.9926977336079388 0.2280695051467751 7.951386703658792e-16 0.0 0.0 7.951386703658792e-16 0.0 0.0 7.951386703658792e-16 0.0 0.0 7.951386703658792e-16 0.0 0.0 -156.64021369226631 8.91547559636488 163.79946526164946 44.659638798006505 -8.668195880864559e-16 2.0752319972955734e-15 2.442551060189282e-15 26.44000759734053 3.5101259135052475e-15 -1.5902773407317588e-15 0.0 0.0 153.18882465894686 5.701914146787201 -169.09100299376715 -37.53363888185654 4.488065815079518e-15 6.563673952188397e-15 -180.0 -10.466992064947236 -180.0 1.5902773407317584e-15 0.0 0.0 -0.9292230225610746 -1.2200007851243379e-14 -9.893203962709518e-17 0.0 0.0 0.0
20.9506911277771 -33.19236037731171 492.8106004714966 137.39461489838993 -79.83439484956327 135.82815618958765 37.845368887108286 -28.39437747209667 -31.2044318378034 -53.65624904595943 2.475798631042633 61.265972704408775 -123.10484433186184 6.3611093629270335e-15 139.72349784155236 0.0 0.0 0.0 68.80831007740568 43.59707747646003 -3.4871315352640897 -49.824347127894704 -12.587220721424908 -44.79688041685783 109.74514327015457 -3.1805546814635168e-15 -72.61501661485957 0.0 0.0 0.0 -0.06501029077166784 2.007622467257407 0.2632233127222918 7.951386703658792e-16 -2.484808344893373e-17 -7.951386703658792e-16 7.951386703658792e-16 -2.484808344893373e-17 -7.951386703658792e-16 7.951386703658792e-16 -2.484808344893373e-17 -7.951386703658792e-16 7.951386703658792e-16 -2.484808344893373e-17 -7.951386703658792e-16 -157.22266696775196 7.006439335719217 163.4440215930972 49.472994870334645 9.388316425084007e-15 -4.325390741458368e-15 2.262354442931003e-15 20.19499800563436 -3.6334787053211905e-15 -1.5902773407317584e-15 0.0 0.0 152.97163615907382 6.24300119975447 -168.9780798842469 -36.96387606303452 -1.319724539780897e-15 -4.4111109542064897e-16 180.0 -11.598568930337777 180.0 0.0 0.0 0.0 -1.205900041428061 -5.515969083327809e-15 -5.804923990441723e-17 0.0 0.0 0.0
